<?xml version="1.0" encoding="utf-8"?>
<!-- Generator: Adobe Illustrator 27.2.0, SVG Export Plug-In . SVG Version: 6.00 Build 0)  -->
<svg version="1.1" id="Layer_1" xmlns="http://www.w3.org/2000/svg" xmlns:xlink="http://www.w3.org/1999/xlink" x="0px" y="0px"
	 viewBox="0 0 910.6 864" style="enable-background:new 0 0 910.6 864;" xml:space="preserve">
<style type="text/css">
	.st0{clip-path:url(#SVGID_00000076600987798487224010000016681873249153703832_);}
	.st1{fill:#EBE1C5;}
</style>
<g>
	<defs>
		<circle id="SVGID_1_" cx="461" cy="435" r="386.3"/>
	</defs>
	<use xlink:href="#SVGID_1_"  style="overflow:visible;fill:#006066;"/>
	<clipPath id="SVGID_00000132789738342193649720000002601951436686798015_">
		<use xlink:href="#SVGID_1_"  style="overflow:visible;"/>
	</clipPath>
	<g style="clip-path:url(#SVGID_00000132789738342193649720000002601951436686798015_);">
		<g>
			<path class="st1" d="M524.9,222.9L524.9,222.9c-0.4,0.8-0.5,1.5-0.2,2.1c0.4,0.6,1.1,0.9,2.4,1c1,0,1.8-0.2,2.6-0.6
				c1.6-0.8,2.2-2,1.8-3.6c-0.2-0.8-0.5-1.3-1.1-1.6c-0.6-0.4-1.5-0.4-2.6,0C526.6,220.7,525.6,221.6,524.9,222.9z"/>
			<path class="st1" d="M592.5,234.4c-0.5-0.3-1.2-0.3-1.8-0.1c-0.6,0.2-1.1,0.6-1.4,1.3c-2.5,5.1-4.9,9.4-7.2,12.7
				c-2.3,3.3-4.3,5.6-5.7,6.7c-1.2,0.9-2.2,1.4-3.1,1.4c-0.1,0-0.3,0-0.4-0.1c-0.3,0-0.5-0.1-0.8-0.3c-0.2-0.2-0.6-0.6-1.2-1.7
				c-0.6-0.9-1-2-1.5-3.4c-0.4-1.3-0.8-3.4-1.3-6c-0.4-2.7-0.7-5.7-0.8-9.2c-0.1-1.1-0.7-1.9-1.8-2.2c-1.1-0.3-2,0-2.6,0.8
				c-0.4,0.5-1,1.4-1.9,2.6c-4.1,5.6-7.6,10-10.4,13c-0.4,0.4-0.7,0.6-0.9,0.9c-0.2-2.2,0.6-5.8,2.3-10.5c1.9-5.2,4.3-8.9,7.1-10.9
				c2.4-1.7,4.7-1.2,7,1.6c0.4,0.5,1,0.8,1.7,0.8c0,0,0.1,0,0.1,0c0.6,0,1.1-0.2,1.6-0.6c0.5-0.4,0.8-1,0.8-1.6
				c0-0.7-0.1-1.2-0.6-1.7c-3.3-3.9-7-5.2-10.8-3.8c-2.6,0.9-5.1,3-7.3,6.4c-0.4,0.6-0.7,1.3-1,2c-0.2,0.4-0.3,0.8-0.5,1.2
				c-0.4,0.1-0.8,0.4-1.1,0.8c-3.5,5.7-7.7,10.8-12.5,15.2c-5.9,5.4-8.4,5.9-9.6,5.4c-0.1,0-0.2-0.1-0.4-0.3c0,0-0.2-0.2-0.5-1.4
				c-0.2-0.8-0.4-1.9-0.4-3.2c0-1.3,0.1-3.3,0.5-5.8c0.4-2.6,1-5.6,1.8-8.9c0.2-0.6,0.1-1.2-0.3-1.8c-0.3-0.6-0.8-1-1.5-1.1
				c-0.6-0.1-1.2-0.1-1.8,0.2c-0.3,0.1-0.4,0.4-0.5,0.6c0,0,0,0,0,0.1l0,0c-0.6,0.2-1.1,0.5-1.4,1c-2.8,4.6-5.5,8.5-7.9,11.7
				c-2.4,3.2-4.3,5.6-5.8,7.1c-1.4,1.5-2.7,2.6-3.9,3.4c-1.5,1-2.1,1.2-2.2,1.2c-0.4,0.1-0.6,0-0.7,0c-0.8-0.2-1.8-1.6-2.3-7.3
				c-0.4-6.4-2.3-9.9-5.6-10.3c-0.2,0-0.5-0.1-0.7-0.1c-2.5,0-5.2,1.8-8,5.4c-2.6,3.3-5.3,7.6-7.9,12.8c2.9-13.2,6.9-30.3,11.9-50.8
				c1.4-2.5,2.5-4.7,3.6-6.9c0.4-0.9,0.9-1.7,1.4-2.6c32.3-0.6,50.3-0.4,53.3,0.6c0.9,0.7,1.8,0.7,2.8,0.1c0.6-0.4,0.9-1,1-1.6
				c0.1-0.7-0.1-1.3-0.5-1.7c-0.6-0.9-2.2-1.5-5.2-1.8c-2.8-0.3-9.5-0.5-20.5-0.7c-6.9-0.1-16.5,0-28.5,0.2
				c3.5-7.1,10.2-23.6,12.2-29c3.4-9.1,4.3-14.5,2.7-16.8c-0.7-1-1.8-1.4-3.1-1.2c-2.4,0.5-5.2,4.1-8.4,11.2
				c-3.2,7.1-10.1,26.5-12.4,36l-2.3,0.1c-2.5,0.1-5,0.1-7.7,0.2c2.3-9.1,4.2-16.3,5.7-22.1c0.1-0.7,0.1-1.3-0.3-1.9
				c-0.3-0.6-0.8-1-1.4-1.1c-0.6-0.2-1.2-0.1-1.8,0.2c-0.6,0.3-1,0.8-1.1,1.5c-1.7,6.4-3.7,14.3-6,23.5c-5.7,0.1-11.9,0.3-18.8,0.4
				c-11.2,0.4-17.8,0.5-19.8,0.5c-0.4,0-0.8,0.1-1.2,0.3c-0.4,0.2-0.7,0.5-0.9,0.9c-0.2,0.4-0.3,0.8-0.3,1.2c0,0.7,0.2,1.2,0.7,1.7
				c0.5,0.5,1,0.7,1.7,0.7c2,0,8.9-0.1,19.9-0.4c6.9-0.2,12.7-0.3,17.4-0.4c-2.5,10.6-5.2,22.4-8.1,36c0,0-0.1,0-0.1,0
				c-0.2,0.1-0.4,0.2-0.5,0.5c-1,1.9-1.9,3.4-2.6,4.6c-0.7,1.1-1.7,2.6-3.2,4.9c-1.4,2.1-2.7,3.6-3.9,4.7c-1,0.9-1.9,1.4-2.6,1.4
				c-0.1,0-0.2,0-0.2,0c-1.1-0.1-2.8-1.7-4.7-8.2c-1-3.2-2.1-5.7-3.2-7.6c-1.2-2-2.8-3-4.7-3.1c-0.1,0-0.1,0-0.2,0
				c-1.6,0-3.2,0.8-4.9,2.4c-1.3,1.3-2.8,3.3-4.5,6.1c0.7-2.6,1.7-5.9,2.7-9.7l0.5-1.8c0.3-0.9,0.4-1.5,0.5-1.8
				c0.2-0.7,0.2-1.3-0.1-1.9c-0.3-0.6-0.8-1-1.5-1.1c-0.6-0.2-1.2-0.1-1.8,0.2c-0.6,0.3-1,0.8-1.3,1.5c-0.2,0.8-0.5,1.9-1.1,3.7
				c-0.3,1-0.6,2-0.8,2.9c-0.2,0.7-0.4,1.4-0.6,2c-10.4,6.8-19.2,13.5-26.2,19.9c1.2-7.5,2.4-15.6,3.5-24.1c0.2-1.2-0.4-2.1-1.6-2.6
				c-1.2-0.4-2.2-0.1-2.9,1.1c-3.7,6.4-7.4,11.8-10.9,16.1c-1.4,1.7-2.5,2.5-3.1,2.1c-1-0.6-1.5-2.5-1.6-5.5c0-3.2,0.9-7.4,2.8-12.5
				c0.2-0.7,0.2-1.3-0.1-1.9s-0.7-1-1.3-1.2c-0.6-0.3-1.2-0.3-1.8,0c-0.6,0.2-1.1,0.7-1.3,1.3c-0.8,2-1.5,4.1-2.1,6.6l0,0
				c-0.3,0.2-0.6,0.4-0.7,0.7c-12,25.6-23.6,44.5-34.7,56.1c-9.3,9.7-17.3,13.7-23.9,11.6c-2.9-0.9-5.5-3-7.7-6.4
				c-2.2-3.4-4-7.8-5.1-13.3c-2.6-12-2.5-26.8,0.3-44.1c2.1-13,5.8-26.9,11.1-41.2c5.3-14.3,11.1-25.4,17.3-32.9
				c1.9-2.2,3.6-3.9,5.2-4.9c1.5-1,2.7-1.3,3.6-0.8c1,0.4,1.8,1.6,2.4,3.4c0.7,1.9,1.1,4.8,1.3,8.5c0.2,3.8,0.1,8.4-0.3,13.6
				c-0.4,5.3-1.2,11.9-2.5,19.7c-1.3,7.9-3,16.6-5.1,26c-0.2,0.7-0.1,1.3,0.3,1.8c0.4,0.5,0.9,0.9,1.5,1.1c0.6,0.1,1.2,0,1.8-0.3
				c0.6-0.4,0.9-0.8,1.1-1.4c2-8.8,3.6-17.2,4.9-24.9c1.3-7.6,2.2-15.4,2.9-23c0.6-7.6,0.5-14.1-0.5-19.1c-1-5.1-2.9-8.5-5.8-9.9
				c-4.1-2-9,0.4-14.7,7.1c-6.8,8.1-13.2,20.4-18.9,36.5c-4.9,13.7-8.5,27.1-10.5,39.9c-1.9,12.2-2.6,23.4-2,33
				c0.6,9.6,2.4,17.8,5.5,24.1c3.1,6.4,7.3,10.5,12.4,12c1.6,0.5,3.2,0.8,4.9,0.8c5.6,0,11.7-2.8,18.2-8.3
				c6.5-5.5,13.3-13.6,20.3-24.2c5.2-7.9,10.8-17.8,17-30.3c0.5,3.2,1.7,5.2,3.4,6.3c3,1.8,6.2,0.7,9.4-3.3c1.6-1.9,3.4-4.3,5.3-7
				c-1,6.8-2,13.2-2.9,19.1c-9.6,9.9-17.9,21.4-24.6,34.1c-3.8,7.4-6.8,15.2-8.8,23.2c-2,8-2.9,15-2.8,20.9c0.2,6,1.3,10.2,3.3,12.9
				c1.3,1.5,2.8,2.2,4.5,2.2c0.6,0,1.1-0.1,1.7-0.2c5.7-1.6,11.4-11.4,17.3-30c4.9-15.5,9.5-35.9,13.7-60.7
				c6.4-6.5,14.8-13.2,25.5-20.5c-2.5,9.2-4,16-4.5,20.1c-0.2,1.4,0.5,2.3,1.8,2.6c0.1,0.1,0.3,0.1,0.6,0.1c1.1,0,1.8-0.5,2.3-1.5
				c1.9-4.7,3.7-8.9,5.4-12.3c1.6-3.4,3-6,4-7.8c1-1.7,1.9-3.1,2.8-4.1c1-1.2,1.5-1.7,1.8-1.8c0.4-0.2,0.5-0.2,0.6-0.2l0.1,0
				c0.4,0,1.5,0.7,3.5,7c2.1,7.3,5,11.3,8.7,11.7c0.2,0,0.5,0.1,0.7,0.1c1.6,0,3.3-0.6,4.9-1.9c1.8-1.4,3.6-3.3,5.3-5.6
				c-0.3,1.2-0.5,2.4-0.8,3.6c-0.8,3.8-1.6,7.6-2.5,11.6c-3.5,16.9-6.2,30.8-8,41.4c-1,5.7-1.6,9.9-1.9,12.8c-0.4,2.1-0.4,3.8-0.3,5
				c0.2,1.7,1.2,2.3,1.9,2.5c1.1,0.3,1.9,0.1,2.7-0.8c0.5-0.6,0.9-1.1,1.2-1.7c0.3-0.5,0.6-1.4,0.9-2.5c0.3-0.6,0.3-1.2,0-1.8
				c-0.3-0.6-0.7-1.1-1.3-1.2c-0.1,0-0.1,0-0.2-0.1c1.2-10.2,4.7-28.9,10.2-55.7c4.7-22.2,9.3-43.2,13.9-62.5l9.9-0.2
				c-1.4,5.5-2.7,11-4.2,17.2c-2.3,9.7-5.3,22.4-8.8,37.9c-3.6,15.7-5.4,25.1-5.6,27.9c-0.1,0.4-0.1,0.8,0.1,1.2
				c0.2,0.4,0.4,0.7,0.7,0.9c0.3,0.2,0.7,0.4,1.1,0.5h0.4c1.2,0,1.9-0.6,2.3-1.6c1.8-5,3.6-9.7,5.4-14c1.9-4.4,3.6-7.9,5.1-10.7
				c1.6-2.9,3.1-5.2,4.4-7.2c1.4-2,2.6-3.4,3.5-4.2c1.1-1,1.8-1.2,2.1-1.2l0.1,0c0,0,0.1,0,0.3,0.3c0.2,0.3,0.5,1.2,0.7,1.9
				c0.3,1,0.5,2.2,0.5,3.7c0.4,6.9,2.4,10.8,5.9,11.7c0.3,0.1,0.6,0.1,0.8,0.1l0.3,0c0.1,0,0.1,0,0.2,0c0.4,0,0.9-0.1,1.7-0.2
				c0.9-0.2,1.8-0.6,2.7-1.1c0.9-0.5,2-1.4,3.4-2.7c1.4-1.2,2.9-2.8,4.4-4.6c1.5-1.7,3.3-4.1,5.5-7.1c0.4-0.5,0.8-1.2,1.2-1.8
				c-1,8.1,0.3,12.8,3.8,14.4c0.7,0.3,1.5,0.5,2.4,0.5c2.5,0,5.5-1.4,9.1-4.1c3.1-2.4,6-5.1,8.6-8.1c-0.1,0.7-0.2,1.6-0.2,2.3
				c-0.1,3.2,0.9,5.2,2.7,5.8c1.8,0.9,4.1,0,6.6-2.7c2.6-2.8,5.5-6.4,8.7-10.7c1.2,11.5,4.2,17.5,9,18.5c0.4,0.1,0.8,0.1,1.2,0.1
				c6.2,0,12.9-7.7,20.6-23.7c0.3-0.6,0.3-1.2,0.1-1.8C593.5,235.1,593.1,234.7,592.5,234.4z M494,188.7
				c2.6-10.3,7.3-25.9,13.3-34.5C505.6,161.7,501,175.9,494,188.7z M391.5,268.6c-3.8,21.2-8,39-12.4,52.8c-1.4,4.5-2.9,8.5-4.3,12
				c-1.5,3.4-2.7,6-3.7,7.9c-1,1.8-1.9,3.2-2.9,4.4c-1.2,1.4-1.8,1.9-2,2.1c-0.4,0.3-0.7,0.4-1.1,0.5c-0.1,0-0.5,0.1-1.1-0.5
				c-0.9-1.1-1.6-3.3-1.9-6.5c-0.4-3.2-0.3-7.1,0.1-11.6c0.4-4.5,1.5-9.8,3.3-15.8c1.8-6,4.2-12,7.2-17.7
				C378,286.1,384.3,276.8,391.5,268.6z"/>
		</g>
		<g>
			<path class="st1" d="M355.2,374.5h6.2c12.1,0,19.3,0.6,23.5,5.6c2.6,3.4,3.2,8.8,3.2,17.1v3.7h2.1v-28.5l-84.9,0v4.1
				c-0.6,1.3-1.5,2.3-3,2.3c-3,0-10.8-8.4-23.8-8.4c-16.4,0-26.8,11.1-26.8,28.9c0,16.7,8.1,23.6,25.4,27c10.9,2.1,19.2,3.4,24.3,8
				c4.1,3.5,6.2,8.3,6.2,13.4c0,12.5-10,22.3-23.8,22.3c-16.5,0-28.8-12.7-30.2-34.8h-2.1l0,35h2.1c0.1-3.7,1.6-5.7,3.5-5.7
				c4.3,0,13.6,7.7,27.2,7.7c18.2,0,30-12.7,30-31.9c0-16.1-7.5-23.5-24.5-27.5c-11.1-2.6-19.6-2.6-23.9-5.3
				c-5.5-3.4-7.8-8.1-7.8-15.3c0-12.5,7.5-19.6,20.5-19.6c13.8,0,23.5,9.1,26.7,25.6v2.9h0.5c0.1,0.4,0.1,0.7,0.2,1h2.1v-15.5
				c0.5-2.6,1.3-4.8,2.5-6.4c4.1-5,11.5-5.6,23.6-5.6h6v93.5h-10.8v2.1H366v-2.1h-10.8V374.5z"/>
			<path class="st1" d="M511.5,374.5v-2.1h-25.1v2.1h1.3c5.9,0,8.4,1,8.4,4.1c0,1.6-0.6,3.2-1.5,5.3l-19,43.1l-23.6-52.5h10.5v-2.1
				h-37.6v2.1h11.5l26.1,58.7v34.8h-9.5h-3.2h-6.5l-34.7-96.7H407l-28.5,87.7c-2.1,6.5-2.8,9-10.6,9H366v2.1l25.5,0v-2.1
				c-8.1-0.3-12-0.6-12-3.5c0-0.3,0.2-1.3,0.6-2.6l7.2-23.5h30.1l10.8,29.6h-12.7v2.1h34.3h3.2h36.5v-2.1H477v-37.6l21.2-47.9
				c2.7-5.9,4.4-8,11.1-8H511.5z M388.1,436.3l13.7-41.8l14.9,41.8H388.1z"/>
			<path class="st1" d="M543.9,412.7c-11.1-2.6-19.6-2.6-23.9-5.3c-5.5-3.4-7.8-8.1-7.8-15.3c0-12.5,7.5-19.6,20.5-19.6
				c14.9,0,25.1,10.5,27.4,29.5h2.1v-28.8h-2.1v0.7c0,3.1-1.5,4.9-3.7,4.9c-3,0-10.8-8.4-23.8-8.4c-16.4,0-26.9,11.1-26.9,28.9
				c0,16.7,8.1,23.6,25.4,27c10.9,2.1,19.2,3.4,24.4,8c4.1,3.5,6.2,8.3,6.2,13.4c0,12.5-10,22.3-23.8,22.3
				c-16.5,0-28.8-12.7-30.3-34.8h-2.1v35h2.1c0.2-3.7,1.6-5.7,3.5-5.7c4.3,0,13.6,7.7,27.2,7.7c18.1,0,29.9-12.7,29.9-31.9
				C568.4,424.1,560.9,416.7,543.9,412.7z"/>
		</g>
		<g>
			<path class="st1" d="M248.6,533.2c0-16.7,12.7-29.1,30-29.1c8.3,0,15.8,2.8,20.9,8.3l-3.8,3.8c-4.7-4.7-10.4-6.8-16.9-6.8
				c-13.8,0-24.2,10.1-24.2,23.7c0,13.6,10.4,23.7,24.2,23.7c6.5,0,12.2-2,16.9-6.9l3.8,3.8c-5.1,5.6-12.6,8.4-21,8.4
				C261.4,562.3,248.6,550,248.6,533.2z"/>
			<path class="st1" d="M315.8,537.4v-32.8h6l0,32.5c0,13.6,6.4,19.8,17.5,19.8c11.2,0,17.6-6.2,17.6-19.8l0-32.5h5.9v32.8
				c0,16.4-8.8,24.9-23.4,24.9C324.7,562.3,315.8,553.8,315.8,537.4z"/>
			<path class="st1" d="M424.1,561.8l-13.1-18.4c-1.5,0.2-2.9,0.2-4.6,0.2h-15.4v18.1h-6v-57.2l21.4,0c14.5,0,23.3,7.4,23.3,19.6
				c0,9-4.7,15.3-13.1,18l14,19.6H424.1z M423.8,524.3c0-9.1-6-14.4-17.5-14.4h-15.2l0,28.7h15.2
				C417.8,538.6,423.8,533.2,423.8,524.3z"/>
			<path class="st1" d="M484.1,546.6h-31.8l-6.9,15.3h-6.3l26.1-57.2h6l26.1,57.2h-6.4L484.1,546.6z M481.9,541.6l-13.7-30.7
				l-13.7,30.7H481.9z"/>
			<path class="st1" d="M519.1,509.9H499v-5.2h46.2v5.2h-20.1v51.9h-6V509.9z"/>
			<path class="st1" d="M599.4,556.6v5.2l-40.4,0v-57.2l39.2,0v5.2H565v20.3h29.6v5.2H565v21.2H599.4z"/>
			<path class="st1" d="M617.7,504.7H641c18.3,0,30.6,11.8,30.6,28.6c0,16.8-12.3,28.6-30.6,28.6h-23.3V504.7z M640.6,556.6
				c15.2,0,25-9.6,25-23.4c0-13.7-9.8-23.4-25-23.4l-16.9,0v46.7H640.6z"/>
		</g>
		<path class="st1" d="M683.5,624.1c-7.2-2.4-7.2-2.5-14.6-4.6c-62.1-17-123.2-5.6-154.4,2.3c-23.6,5.9-125.3,36.4-157.8,41.6
			c-30.3,4.9-78.3-3.1-94.7-10.5c-12.8-6.1-16.6-8.3-28.5-15.9c-0.3-0.2-0.5-0.5-1.3-1.6c5,2.2,9.2,3.9,13.2,5.8
			c17.3,6.8,26.9,7.8,39.9,9.9c14.7,2.3,29.6,2.4,44.6,1.1c28.6-2.5,55.5-9.7,82.2-17.8c27.8-8.5,55.6-17.1,83.8-24.7
			c30-8.1,61.2-11.8,93-10.4c18.6,0.9,36.5,4.1,54.1,9c17.3,4.8,20.7,6,36.4,13.2c1.5,0.7,2.9,1.5,4.3,2.2
			C683.7,623.9,683.6,624,683.5,624.1z"/>
		<path class="st1" d="M348.6,620.3c-3,1.1-22.4,6.9-27.3,8.1c-20.1,4.8-40,5.7-59.1-2.6c-2.2-1-4.5-1.9-6.8-2.9
			c14.7,11.3,31.5,13.9,51.6,13.7c22.8-0.2,35.4-4.8,56.5-10.7c8.5-2.4,41.5-16.7,74.5-17.6c2.1-0.1,5.6,0.1,7.6,0.4l1.5-0.4
			c-4.3-1.6-7.2-2.6-14.6-2.8C402.7,604.4,372.7,612.8,348.6,620.3z"/>
		<path class="st1" d="M656.6,636.5c-26.2-10.3-53.6-15.2-82.9-11.3c-21,2.8-51.1,12.4-70.5,18.8c-23,7.6-46.4,14.3-71.4,16.8
			c-1.3,0.1-2.7,0.4-5.2,0.9c1.8,0.7,2.3,0.9,2.8,1c20.5,4,41.3,1.8,61.6-2.8c20.3-4.6,50.8-14.6,70.9-20c1.4-0.4,27.6-6.1,28.8-6.3
			c18-3.5,36-1.3,54.2,1.8c4.3,0.7,8.5,1.6,14,2.7C657.5,637,657.1,636.7,656.6,636.5z"/>
		<path class="st1" d="M877.1,314.9c-0.7-1.2-2.1-1.9-3.2-2.8c-20.1-14.7-42.5-24.4-67-29c-14.4-2.7-28.8-3.4-43.2-0.1
			c-8.8,2-17.5,4.6-26.6,7c0.5-4.4-2.9-5.6-6.4-7c-4.2-1.6-8.3-3.3-12.4-5c0.5-1.5,0.6-2.3,1-3c0.4-0.9,1-1.8,1.5-2.7
			c2.2-3.6,2.5-3.8,6.4-2.4c1.9,0.7,3.8,1.5,5.8,2.3c4.2,1.6,8.4,3.5,12.7,4.8c1.2,0.4,3.5-0.2,4.2-1.2c1.3-1.9-0.2-3.5-2-4.4
			c-1.3-0.7-2.7-1.1-4-1.7c-4.4-1.7-8.8-3.4-13.2-5.2c-1-0.4-1.8-1.2-3.1-2.2c2.7-2.9,5.1-5.4,7.5-8c7.4,3,14.5,5.8,21.6,8.6
			c1.2,0.5,2.4,1.3,3.5,1.2c1.3-0.2,3-0.9,3.5-1.9c0.4-0.9-0.6-2.6-1.4-3.6c-0.8-0.8-2.2-1-3.3-1.5c-5.8-2.4-11.6-4.7-18.4-7.5
			c2.6-2.3,4.5-3.8,6.3-5.4c2.4-2,5-2.3,8-0.9c5.2,2.4,10.6,4.5,16,6.7c3.5,1.4,6,1.1,6.5-1c0.7-3-1.7-3.9-3.8-4.8
			c-4-1.6-8.1-3-12.1-4.7c-0.9-0.4-1.6-1.3-2.8-2.3c2.2-1.2,3.9-1.9,5.4-2.8c4.4-2.8,8.9-2.8,13.5-0.5c2.8,1.4,5.7,2.4,8.7,3.3
			c1.5,0.5,3.4,0.4,4-1.8c0.5-1.9-0.4-3.1-2.1-3.9c-1.9-0.8-3.8-1.8-7-3.3c3.1-1.1,4.5-1.8,6.1-2.1c4.8-1,9.8-1.6,14.6-2.8
			c1.2-0.3,2.7-2.1,2.8-3.3c0.2-1.8-1.4-2.9-3.4-2.7c-1.2,0.1-2.5,0-3.7,0.3c-14.5,3.4-28.7,7.4-41.9,14.6
			c-24.1,13.2-41.4,31.8-49,58.6c-0.2,0.7-1.4,1.1-2,1.5c-0.5-0.5-0.8-0.6-0.8-0.8c-6-21.8-18.8-38.7-37-51.8
			c-13.3-9.5-28-15.6-43.6-19.8c-4.2-1.1-8.4-2-12.7-2.7c-3.2-0.5-5.2,0.7-5.3,2.8c-0.1,2.8,2,3.1,4.2,3.4c2.5,0.3,5,0.5,7.3,1.2
			c3.6,1.1,7.8,0.5,11.7,3.9c-2.6,1.1-4.4,1.8-6.2,2.7c-1.8,0.9-3.4,2.4-2.2,4.3c0.6,1,2.9,1.6,4.1,1.3c3.6-1,6.9-2.7,10.5-3.8
			c2.3-0.7,4.9-1.2,7.1-0.6c3.2,0.9,6.2,2.8,9.9,4.6c-1.3,1.1-1.9,2-2.7,2.3c-3.4,1.4-7,2.5-10.4,3.9c-1.7,0.7-3.4,1.5-4.8,2.7
			c-1.9,1.6-1.1,4.4,1.4,4.5c1.7,0.1,3.6-0.5,5.3-1.1c6.5-2.5,13-5.1,19.4-7.7c3,3,7.2,4,8.9,8.3c-4.2,1.6-8,3-11.8,4.6
			c-2.7,1.1-5.3,2.4-8,3.4c-2,0.8-3.4,2-2.5,4.1c0.9,2.4,2.9,2.6,5.1,1.4c0.7-0.4,1.5-0.6,2.3-0.9c6.8-2.7,13.7-5.5,21.1-8.5
			c2.4,2.6,4.8,5.2,7.5,8.1c-1.1,0.9-1.7,1.6-2.4,1.9c-4.6,1.8-9.2,3.5-13.8,5.4c-1.9,0.8-3.9,1.6-5.5,2.8c-0.7,0.6-1.2,2.4-0.8,3.3
			c0.4,0.9,1.9,1.8,2.9,1.8c1.6-0.1,3.2-0.8,4.7-1.4c4-1.6,7.9-3.5,12-5c2.4-0.9,5-1.3,7.7-2c1.7,3.2,3.2,5.8,4.8,8.8
			c-4.3,1.8-8,3.7-11.8,5c-4,1.3-7.5,2.7-7.6,7.5c-0.8,0-1,0.1-1.2,0c-24.7-10.4-50.2-11.8-76-5.6c-21.9,5.2-42,14.7-60.3,28
			c-0.8,0.6-1.8,1.2-2.2,2.1c-0.4,0.8-0.7,2.1-0.3,2.7c0.6,0.9,1.9,1.9,2.8,1.8c1.5-0.3,3-1.3,4.3-2.1c6.9-4.4,13.8-8.8,21.5-13.7
			c0.8,6.2-5.5,10.1-3.1,15.3c3.3,1.6,4.8,0,5.9-2.6c1.8-4.4,3.7-8.7,5.6-13c0.7-1.5,1.3-3.4,2.6-4.1c5.3-3,11.2-4.6,17.9-6.3
			c-0.5,2-0.6,3.1-1,4.2c-2.4,5.7-4.8,11.4-7.3,17c-1,2.2-1.4,4.1,1,5.2c2.5,1.2,3.8-0.5,4.7-2.6c0.5-1.1,1-2.3,1.4-3.4
			c2.7-6.2,5.3-12.5,8.1-18.7c0.7-1.6,1.9-3.9,3.2-4.2c5.1-1.2,10.2-3.2,16-1.5c-0.5,1.2-0.8,2.2-1.2,3.1
			c-3.2,7.4-6.4,14.7-9.6,22.1c-0.8,1.9-1.6,4.1,1,5.3c2.7,1.2,3.7-0.9,4.6-2.8c0.6-1.3,1.2-2.6,1.8-4c3-7,6-13.9,9-21
			c0.8-2,1.6-4.1,4.1-4c4.5,0.2,8.9,0.6,14,1c-3.5,8.2-6.7,15.7-10,23.2c-1,2.3-2.2,4.5-0.8,7c4.1,0.5,4.2,0.6,5.4-2
			c1.9-4.1,3.5-8.3,5.3-12.5c2.2-5,4.6-10,6.8-14.8c10.2,2,11.7,2.6,14.2,5c-2.5,6-5.1,12.1-7.6,18.2c-0.5,1.1-1.2,2.3-1.3,3.5
			c-0.1,0.9,0.4,2.3,1,2.7c1,0.5,2.5,0.5,3.4,0c0.9-0.5,1.5-1.8,2-2.9c2.5-5.6,4.9-11.3,7.4-17c0.5-1.2,1.5-2.2,2.2-3.3
			c10,4.5,19,9.6,27.4,16.1c-2.4,3.5-5.7,1.9-8.3,2.5c-19.4,4.3-37.5,11.6-53,24.4c-30.3,24.9-44.8,58.4-51.5,96
			c-0.5,2.5,0.9,3.8,3.5,5c5.1-3.8,3.3-10.1,4.8-15.1c1.5-5.2,1.8-10.7,4.9-16.2c0.8,1.6,1.2,2.4,1.6,3.3c1.1,2.6,2.1,5.4,3.5,7.9
			c0.5,0.9,2.5,1.9,3.4,1.6c0.9-0.3,1.8-2,2-3.3c0.2-1.1-0.5-2.4-0.9-3.5c-1.8-4.6-3.7-9.1-5.5-13.7c-0.4-1.1-1-2.5-0.7-3.4
			c2.4-5.6,5-11,7.9-17.3c1.3,1.8,2.2,2.7,2.6,3.7c2.4,5.9,4.6,11.9,7,17.8c1.4,3.3,3,4.3,4.9,3.2c2.3-1.4,2.1-3.3,1-5.4
			c-0.3-0.5-0.5-1.2-0.7-1.7c-2.9-7.5-5.9-14.9-8.7-22.5c-0.5-1.4-0.7-3.4,0-4.5c2.6-4,5.7-7.8,9-12.1c1.1,1.9,1.9,2.8,2.4,3.9
			c2.7,6.7,5.3,13.4,7.9,20.1c0.6,1.5,1.2,3.2,2.2,4.4c0.6,0.8,2.2,1.5,3.1,1.3c0.9-0.3,1.8-1.7,2-2.8c0.2-1.1-0.2-2.5-0.7-3.6
			c-1.7-4.2-3.5-8.3-5.2-12.6c-2.2-5.5-4.2-11-6.3-16.5c4.2-3.6,7.2-7.5,12.2-10.2c1.3,3,2.5,5.5,3.5,8.1c2.5,6.1,4.9,12.3,7.3,18.4
			c0.8,2,2.3,3.1,4.4,2.2c2-0.9,2.3-2.5,1.2-4.6c-1.3-2.6-2.1-5.4-3.2-8.1c-2.6-6.6-5.3-13.3-8.1-20.3c4.6-2.6,8.3-5.9,13.7-7.1
			c2.5,6.2,4.8,12,7.2,17.9c1,2.6,1.7,5.6,5.2,6.2c3.2-1.9,2.5-4.4,1.4-7c-2.1-4.9-4.2-9.9-6.2-14.8c-0.7-1.6-1-3.4-1.7-5.6
			c4.8-1.7,9.2-3.2,14.1-4.9c1.7,4.1,3.1,7.7,4.6,11.3c1.5,3.5,3.3,4.8,5.3,3.6c2.8-1.7,1.1-4,0.5-6c-1.1-3.2-2.4-6.4-3.8-10
			c5.3-1.4,9.9-2.8,15-2.1c0.8,7.8,1.5,15.7,1.5,23.8l0,352.4l-485.4,0l0-352.4c0-133.8,108.9-242.7,242.7-242.7
			c93.5,0,174.6,53.2,215.1,130.8l16.2,14.8c-38-90.3-127.4-153.8-231.3-153.8C320.6,92.2,208,204.8,208,343.1l0,360.6l501.8,0
			l0-360.6c0-7.8-0.6-15.5-1.3-23.2c0.2-0.3,0.5-0.6,0.6-0.8c5-0.6,9.9,0.8,15.5,2.4c-1.5,4-2.9,7.6-4.3,11.2
			c-0.7,1.8-1.3,3.7,1,4.7c2.4,1,3.9-0.4,4.8-2.5c1-2.5,1.9-5,3-7.4c0.7-1.6,1.5-3.2,2.4-5c4.9,1.8,9.2,3.4,14,5.1
			c-2.7,7-5.2,13.3-7.6,19.6c-0.6,1.5-1.2,3.1-1.1,4.7c0,1,1.1,2.4,2,2.7c0.9,0.2,2.5-0.5,3.1-1.3c1-1.5,1.6-3.3,2.3-5
			c2.4-5.8,4.7-11.7,7.1-17.4c6.5,2.2,9.6,4,13.3,7.8c-3.4,8.4-6.8,17-10.2,25.6c-0.4,1-1.2,1.9-1.1,2.8c0.1,1.3,0.6,2.9,1.5,3.6
			c1.5,1,3.2,0.5,4.1-1.3c0.5-0.9,0.9-1.8,1.3-2.8c2.6-6.5,5.1-13,7.7-19.5c0.7-1.6,1.6-3.1,2.8-5.3c3.2,2.9,5.6,5.4,8.3,7.5
			c2.7,2.2,3,4.4,1.7,7.5c-3.2,7.6-6.2,15.3-9.2,22.9c-0.6,1.5-1.3,3.1-1.3,4.7c0,1.2,0.9,3.1,1.9,3.3c0.9,0.3,2.6-0.8,3.5-1.7
			c0.9-1,1.3-2.5,1.8-3.9c2.6-6.7,5.2-13.4,7.9-20.1c0.5-1.2,1.5-2.3,2.5-3.8c2.3,2.9,4,5.4,6.1,7.6c3.7,4,3.9,7.9,1.6,12.8
			c-3.2,6.7-5.6,13.7-8.3,20.6c-0.9,2.4-0.2,4.8,1.6,5.1c2.2,0.4,3.5-0.7,4.1-2.8c0.2-0.6,0.6-1.1,0.8-1.7
			c2.1-5.6,4.2-11.1,6.5-16.7c0.5-1.1,1.5-2,2.7-3.4c2.5,5.2,4.7,9.7,6.8,14.1c1.1,2.3,1.5,4.4,0.2,7c-2.1,4.2-3.8,8.7-5.3,13.2
			c-0.7,2-0.6,4.2-0.8,6.4c4.9-0.1,5-0.1,6.4-3.3c1.3-2.9,2.4-5.9,4.1-10.1c1.1,3.1,1.8,4.6,2.1,6.2c1.6,7.4,3.1,14.9,4.6,22.4
			c0.4,2.1,1.5,3.7,3.7,3.2c1.9-0.4,3.1-2,2.7-4.3c-0.5-2.8-0.9-5.7-1.5-8.5c-4.4-19.7-11.1-38.4-21.9-55.5
			c-20-31.8-48.3-51.3-85.9-56.8c-1.2-0.2-2.4-1.1-4.2-1.9c9.2-6.9,18.3-12.1,28.7-16.7c2.7,6.1,5.2,11.9,7.7,17.7
			c0.7,1.7,1.3,3.6,2.5,4.9c0.7,0.8,2.7,1.4,3.7,1c0.9-0.4,1.4-2.2,1.6-3.4c0.1-0.9-0.8-1.8-1.2-2.8c-2.3-5.5-4.6-11-7-16.5
			c-0.8-1.8-0.9-3.5,1.1-4.1c4.1-1.2,8.2-2.1,12.6-3.1c2.4,5.5,4.6,10.3,6.7,15.2c1.7,3.9,3.3,7.9,5,11.9c1.1,2.5,2.7,4.2,6.3,2.2
			c-0.3-1.8-0.4-3.8-1-5.6c-1.3-3.5-2.9-6.8-4.4-10.3c-2-4.6-3.9-9.2-6-14.3c4-0.5,7.3-1.1,10.6-1.2c5.6-0.3,5.7-0.1,7.8,5
			c3.2,7.6,6.5,15.1,9.8,22.7c0.6,1.3,1.1,2.8,2.1,3.8c0.7,0.7,2.4,1,3.3,0.6c0.8-0.4,1.5-1.9,1.5-2.9c0-1.1-0.6-2.4-1.1-3.5
			c-3-7-6-14-9-21c-0.4-1.1-0.7-2.2-1.3-4.3c5,0.7,9.1,1.5,13.3,1.7c3.3,0.2,4.6,1.8,5.7,4.6c2.8,6.9,5.8,13.7,8.7,20.5
			c0.7,1.5,1.3,3.1,2.4,4.3c0.6,0.7,2.3,1.1,3.2,0.7c0.9-0.4,1.6-1.8,1.8-2.8c0.1-0.9-0.6-1.9-1-2.8c-2.3-5.5-4.6-11-6.8-16.5
			c-0.6-1.4-0.8-2.9-1.3-4.7c17.4,3.9,18.2,4.6,24.5,19.6c0.6,1.3,1.1,2.7,1.7,4c0.4,0.9,0.8,2.1,1.6,2.6c0.9,0.6,2.4,1.1,3.3,0.7
			c0.8-0.3,1.7-1.9,1.6-2.9c-0.2-1.8-1.2-3.4-1.7-5.2c-0.5-2.2-3-4-1.2-7.6c7.2,4.7,14,9.2,20.9,13.7c1.2,0.8,2.3,1.9,3.7,2.2
			c1,0.2,2.6-0.3,3.1-1C877.6,317.5,877.6,315.8,877.1,314.9z M675.2,291.5c6.8-2.7,12.8-5.1,19-7.6c3.4,7.4,5.3,14.6,6.4,23
			C692.1,301.7,684.3,297,675.2,291.5z M709.2,306.9c0.9-8.3,2.8-15.5,6.1-23c6.2,2.4,12.2,4.7,19.3,7.4
			C726,296.6,718.1,301.4,709.2,306.9z"/>
	</g>
</g>
</svg>
