<?xml version="1.0" encoding="utf-8"?>
<!-- Generator: Adobe Illustrator 27.2.0, SVG Export Plug-In . SVG Version: 6.00 Build 0)  -->
<svg version="1.1" id="Layer_1" xmlns="http://www.w3.org/2000/svg" xmlns:xlink="http://www.w3.org/1999/xlink" x="0px" y="0px"
	 viewBox="0 0 2149.4 344.4" style="enable-background:new 0 0 2149.4 344.4;" xml:space="preserve">
<style type="text/css">
	.st0{fill:#F7E6BF;}
</style>
<g>
	<g>
		<path class="st0" d="M761.1,131.1L761.1,131.1c-0.7,1.4-0.8,2.5-0.3,3.4c0.6,1,1.9,1.6,4,1.7c1.6,0,3.1-0.3,4.3-1
			c2.6-1.3,3.6-3.4,3-6c-0.3-1.3-0.9-2.2-1.8-2.7c-1-0.6-2.4-0.6-4.3,0C764,127.3,762.4,128.8,761.1,131.1z"/>
		<path class="st0" d="M873.7,150.1c-0.9-0.5-1.9-0.5-3-0.2c-1.1,0.3-1.9,1.1-2.4,2.2c-4.1,8.5-8.1,15.6-12.1,21.2
			c-3.9,5.5-7.1,9.3-9.6,11.2c-2,1.5-3.7,2.3-5.2,2.3c-0.2,0-0.5,0-0.7-0.1c-0.5,0-0.9-0.1-1.3-0.5c-0.3-0.3-1-1-2.1-2.8
			c-0.9-1.5-1.7-3.3-2.4-5.6c-0.7-2.2-1.4-5.6-2.1-10c-0.7-4.4-1.1-9.4-1.4-15.3c-0.1-1.9-1.2-3.2-2.9-3.6c-1.9-0.5-3.3,0-4.4,1.4
			c-0.6,0.8-1.6,2.3-3.2,4.4c-6.8,9.3-12.6,16.6-17.2,21.6c-0.6,0.6-1.1,1.1-1.6,1.5c-0.3-3.7,1.1-9.6,3.9-17.5
			c3.2-8.7,7.2-14.8,11.9-18.2c4-2.9,7.8-2,11.7,2.7c0.7,0.8,1.6,1.3,2.8,1.4c0.1,0,0.1,0,0.2,0c1,0,1.9-0.3,2.6-1
			c0.9-0.7,1.3-1.6,1.4-2.7c0.1-1.1-0.2-2.1-0.9-2.9c-5.5-6.6-11.6-8.7-18-6.4c-4.4,1.4-8.5,5-12.1,10.7c-0.7,1.1-1.2,2.2-1.6,3.3
			c-0.3,0.7-0.6,1.3-0.9,2c-0.6,0.2-1.3,0.6-1.9,1.3c-5.8,9.4-12.8,17.9-20.8,25.3c-9.8,9-14.1,9.9-16,9.1c-0.2-0.1-0.4-0.2-0.6-0.5
			c0,0-0.4-0.4-0.9-2.4c-0.4-1.4-0.6-3.1-0.7-5.4c0-2.2,0.2-5.5,0.9-9.7c0.6-4.3,1.7-9.3,3.1-14.8c0.3-1,0.1-2-0.4-2.9
			c-0.5-1-1.3-1.6-2.4-1.9c-1.1-0.2-2.1-0.1-3,0.4c-0.4,0.2-0.7,0.6-0.8,0.9c0,0,0,0.1,0,0.1l0,0c-1,0.3-1.8,0.9-2.3,1.7
			c-4.7,7.7-9.1,14.2-13.1,19.5c-4,5.3-7.2,9.3-9.6,11.9c-2.3,2.5-4.5,4.4-6.4,5.6c-2.5,1.6-3.4,2-3.7,2.1c-0.7,0.1-1,0-1.2,0
			c-1.3-0.3-3.1-2.7-3.8-12.1c-0.6-10.7-3.8-16.5-9.4-17.2c-0.4-0.1-0.8-0.1-1.1-0.1c-4.2,0-8.6,3.1-13.4,9.1
			c-4.4,5.5-8.8,12.7-13.1,21.4c4.9-22.1,11.6-50.5,19.9-84.6c2.3-4.1,4.2-7.9,6-11.5c0.7-1.5,1.5-2.9,2.2-4.4
			c53.8-1,83.7-0.6,88.8,1.1c1.4,1.1,3.1,1.2,4.7,0.1c1-0.7,1.5-1.6,1.7-2.7c0.1-1.1-0.1-2.1-0.8-2.9c-1-1.5-3.7-2.4-8.7-3
			c-4.7-0.5-15.8-0.9-34.1-1.1c-11.5-0.2-27.4,0-47.4,0.3c5.8-11.9,16.9-39.2,20.3-48.2c5.7-15.1,7.2-24.2,4.4-27.9
			c-1.2-1.7-3.1-2.4-5.2-2c-4,0.8-8.6,6.8-13.9,18.6c-5.4,11.8-16.8,44.1-20.7,59.9l-3.9,0.1c-4.1,0.1-8.3,0.2-12.8,0.3
			c3.8-15.1,6.9-27.2,9.5-36.8c0.2-1.1,0.1-2.1-0.4-3.1c-0.5-1-1.3-1.6-2.4-1.9c-1.1-0.3-2.1-0.2-3.1,0.4c-1,0.6-1.6,1.4-1.9,2.5
			c-2.9,10.7-6.2,23.8-9.9,39.1c-9.4,0.2-19.9,0.5-31.3,0.7c-18.6,0.6-29.7,0.9-33,0.9c-0.7,0-1.3,0.2-2,0.5
			c-0.6,0.4-1.1,0.9-1.5,1.5c-0.3,0.6-0.5,1.3-0.5,2c0,1.1,0.4,2.1,1.2,2.8c0.8,0.8,1.7,1.1,2.8,1.1c3.4,0,14.9-0.2,33.2-0.7
			c11.4-0.3,21.2-0.6,29-0.7c-4.1,17.6-8.6,37.2-13.6,60c0,0-0.1,0-0.1,0.1c-0.3,0.1-0.6,0.4-0.9,0.8c-1.7,3.1-3.1,5.6-4.3,7.6
			c-1.1,1.8-2.8,4.3-5.4,8.2c-2.4,3.5-4.5,6.1-6.5,7.8c-1.7,1.5-3.1,2.3-4.3,2.3c-0.1,0-0.3,0-0.4,0c-1.8-0.2-4.7-2.8-7.8-13.7
			c-1.7-5.3-3.4-9.6-5.3-12.6c-1.9-3.3-4.6-5-7.8-5.1c-0.1,0-0.2,0-0.4,0c-2.6,0-5.4,1.4-8.2,4.1c-2.2,2.1-4.7,5.5-7.4,10.2
			c1.2-4.4,2.8-9.8,4.6-16.1l0.9-3.1c0.4-1.5,0.7-2.6,0.9-3.1c0.4-1.1,0.3-2.2-0.2-3.2c-0.6-1-1.4-1.6-2.4-1.9c-1-0.3-2-0.1-3,0.3
			c-1,0.5-1.7,1.3-2.1,2.4c-0.3,1.3-0.8,3.1-1.8,6.2c-0.5,1.7-0.9,3.3-1.4,4.8c-0.3,1.1-0.6,2.2-1,3.4c-17.3,11.3-32,22.5-43.6,33.2
			c2-12.5,4-26,5.9-40.1c0.3-2-0.7-3.5-2.7-4.3c-2-0.7-3.7-0.1-4.8,1.8c-6.2,10.7-12.3,19.7-18.1,26.7c-2.4,2.9-4.2,4.2-5.2,3.6
			c-1.7-1-2.5-4.1-2.6-9.2c-0.1-5.3,1.5-12.3,4.6-20.8c0.4-1.1,0.4-2.2-0.1-3.1c-0.5-1-1.2-1.7-2.2-2.1c-1-0.4-2-0.5-3.1,0
			c-1.1,0.4-1.8,1.1-2.2,2.1c-1.4,3.4-2.5,6.9-3.5,11l0,0c-0.4,0.3-0.9,0.7-1.2,1.2c-19.9,42.7-39.3,74.1-57.8,93.4
			c-15.5,16.2-28.9,22.8-39.8,19.2c-4.9-1.4-9.2-5-12.9-10.6c-3.7-5.6-6.6-13.1-8.6-22.1c-4.3-19.9-4.1-44.6,0.5-73.4
			c3.5-21.7,9.7-44.7,18.5-68.6c8.8-23.9,18.5-42.3,28.8-54.8c3.1-3.7,6-6.4,8.7-8.2c2.5-1.6,4.5-2.1,5.9-1.4c1.6,0.7,2.9,2.7,4,5.7
			c1.1,3.2,1.8,7.9,2.2,14.2c0.4,6.3,0.2,13.9-0.4,22.7s-2,19.8-4.1,32.9c-2.1,13.1-5,27.6-8.5,43.3c-0.3,1.1-0.1,2.2,0.5,3.1
			c0.6,0.9,1.4,1.5,2.5,1.8c1,0.2,2.1,0.1,3-0.5c1-0.6,1.6-1.4,1.9-2.4c3.3-14.6,6-28.6,8.1-41.4c2.1-12.7,3.7-25.6,4.8-38.3
			c1.1-12.7,0.8-23.4-0.8-31.9c-1.6-8.6-4.9-14.1-9.6-16.4c-6.8-3.3-15,0.7-24.4,11.8c-11.3,13.5-21.9,34-31.5,60.7
			c-8.2,22.8-14.1,45.2-17.5,66.5c-3.2,20.4-4.3,38.9-3.3,55c0.9,16.1,4,29.6,9.2,40.1c5.2,10.7,12.1,17.4,20.6,20
			c2.7,0.8,5.4,1.3,8.1,1.3c9.3,0,19.5-4.6,30.3-13.7c10.8-9.1,22.1-22.6,33.7-40.2c8.7-13.2,17.9-29.7,28.2-50.5
			c0.9,5.3,2.8,8.7,5.7,10.5c5,3,10.2,1.1,15.6-5.4c2.7-3.2,5.6-7.2,8.8-11.7c-1.7,11.3-3.3,22-4.9,31.8
			c-16,16.5-29.8,35.6-40.9,56.8c-6.4,12.4-11.3,25.4-14.6,38.6c-3.3,13.3-4.9,25-4.6,34.8c0.3,10,2.1,17,5.5,21.4
			c2.1,2.5,4.7,3.7,7.5,3.7c1,0,1.9-0.1,2.8-0.4c9.5-2.7,18.9-19,28.8-50c8.2-25.8,15.9-59.8,22.8-101.1
			c10.7-10.8,24.6-22,42.5-34.2c-4.1,15.4-6.7,26.6-7.5,33.5c-0.3,2.3,0.8,3.8,3,4.4c0.2,0.1,0.6,0.2,0.9,0.2c1.8,0,3.1-0.9,3.8-2.5
			c3.2-7.9,6.2-14.8,8.9-20.4c2.7-5.6,5-10,6.7-13c1.7-2.9,3.2-5.2,4.6-6.9c1.7-2,2.5-2.8,3-3c0.6-0.4,0.9-0.4,0.9-0.4l0.2,0
			c0.7,0,2.5,1.1,5.8,11.7c3.5,12.2,8.3,18.8,14.5,19.5c0.4,0.1,0.8,0.1,1.2,0.1c2.7,0,5.5-1.1,8.2-3.2c3-2.3,5.9-5.4,8.8-9.3
			c-0.4,2-0.8,3.9-1.3,5.9c-1.4,6.3-2.7,12.6-4.1,19.2c-5.8,28.1-10.3,51.2-13.2,68.9c-1.7,9.4-2.7,16.4-3.2,21.3
			c-0.6,3.5-0.7,6.3-0.5,8.3c0.4,2.8,2,3.8,3.2,4.2c1.8,0.4,3.2,0.1,4.5-1.3c0.9-0.9,1.5-1.9,2-2.8c0.4-0.9,0.9-2.3,1.5-4.2
			c0.4-1,0.4-2,0-3c-0.4-1.1-1.2-1.8-2.2-2c-0.1,0-0.2-0.1-0.3-0.1c2-17,7.8-48.2,17-92.7c7.7-36.9,15.6-71.9,23.2-104l16.5-0.3
			c-2.3,9.2-4.5,18.3-6.9,28.6c-3.9,16.1-8.8,37.3-14.7,63.2c-5.9,26.1-9,41.8-9.3,46.5c-0.1,0.6-0.1,1.3,0.2,1.9
			c0.3,0.6,0.7,1.1,1.1,1.6c0.5,0.4,1.1,0.7,1.9,0.8h0.7c1.9,0,3.2-1,3.8-2.7c2.9-8.3,6-16.2,9.1-23.3c3.2-7.4,6-13.2,8.5-17.8
			c2.7-4.8,5.1-8.7,7.4-11.9c2.3-3.3,4.3-5.6,5.9-7c1.9-1.7,2.9-2,3.5-2l0.1,0c0,0,0.1,0.1,0.4,0.5c0.4,0.6,0.8,2,1.1,3.2
			c0.5,1.7,0.8,3.7,0.9,6.2c0.7,11.4,4,17.9,9.9,19.4c0.5,0.1,1,0.1,1.4,0.2l0.5,0c0.1,0,0.2,0,0.3,0c0.6,0,1.5-0.1,2.8-0.4
			c1.5-0.3,3-1,4.4-1.9c1.4-0.9,3.3-2.4,5.7-4.5c2.4-2.1,4.8-4.6,7.4-7.7c2.5-2.9,5.5-6.8,9.1-11.9c0.6-0.9,1.3-2,2-3
			c-1.6,13.5,0.5,21.4,6.4,23.9c1.1,0.5,2.5,0.8,3.9,0.8c4.1,0,9.2-2.3,15.1-6.9c5.2-4,10-8.5,14.4-13.5c-0.1,1.2-0.3,2.6-0.3,3.8
			c-0.1,5.3,1.4,8.6,4.4,9.7c3.1,1.4,6.7-0.1,11-4.5c4.3-4.7,9.1-10.7,14.4-17.8c2,19.1,7,29.2,15,30.7c0.7,0.1,1.4,0.2,2,0.2
			c10.2,0,21.5-12.9,34.3-39.4c0.4-1,0.5-2,0.1-3C875.3,151.4,874.6,150.6,873.7,150.1z M709.8,74c4.4-17.2,12.1-43.2,22.1-57.4
			C729,29.1,721.3,52.8,709.8,74z M539,207.2c-6.3,35.4-13.2,65-20.6,87.9c-2.3,7.5-4.8,14.2-7.2,19.9c-2.4,5.6-4.5,10-6.2,13.1
			c-1.6,2.9-3.2,5.4-4.9,7.3c-2,2.4-2.9,3.2-3.4,3.5c-0.6,0.4-1.2,0.7-1.8,0.8c-0.2,0.1-0.9,0.2-1.8-0.8c-1.6-1.9-2.7-5.5-3.2-10.8
			c-0.6-5.4-0.5-11.9,0.2-19.3c0.7-7.4,2.6-16.3,5.5-26.3c3-10,7-19.9,12-29.5C516.5,236.2,527,220.8,539,207.2z"/>
	</g>
	<g>
		<path class="st0" d="M1074.9,73.9h10.3c20.1,0,32.2,1,39.1,9.4c4.4,5.6,5.4,14.7,5.4,28.5v6.2h3.5V70.5H991.8v6.8
			c-1,2.2-2.6,3.8-4.9,3.8c-4.9,0-17.9-14-39.6-14c-27.3,0-44.7,18.4-44.7,48.2c0,27.8,13.5,39.3,42.3,45
			c18.2,3.5,31.9,5.7,40.5,13.3c6.9,5.9,10.3,13.8,10.3,22.4c0,20.9-16.7,37.1-39.6,37.1c-27.5,0-47.9-21.1-50.4-58h-3.4v58.2h3.4
			c0.2-6.2,2.7-9.6,5.9-9.6c7.1,0,22.6,12.8,45.2,12.8c30.2,0,49.9-21.1,49.9-53.1c0-26.8-12.5-39.1-40.8-45.7
			c-18.4-4.4-32.7-4.4-39.8-8.8c-9.1-5.6-13-13.5-13-25.6c0-20.9,12.5-32.7,34.1-32.7c23,0,39.1,15.2,44.5,42.6v4.9h0.9
			c0.1,0.6,0.2,1.1,0.3,1.7h3.4V93.9c0.8-4.4,2.1-7.9,4.2-10.6c6.9-8.4,19.2-9.4,39.3-9.4h10.1v155.8h-17.9v3.5h60.7v-3.5h-17.9
			V73.9z"/>
		<path class="st0" d="M1335.2,73.9v-3.5h-41.8v3.5h2.2c9.8,0,14,1.7,14,6.9c0,2.7-1,5.4-2.5,8.8l-31.7,71.7l-39.3-87.5h17.4v-3.5
			H1191v3.5h19.1l43.5,97.8v58h-15.8h-5.4h-10.9l-57.7-160.9h-2.7l-47.4,146c-3.4,10.8-4.7,15-17.7,15h-3.2v3.5h42.5v-3.5
			c-13.5-0.5-19.9-0.9-19.9-5.9c0-0.5,0.3-2.2,1-4.4l12-39.1h50.1l17.9,49.4h-21.1v3.5h57.1h5.4h60.7v-3.5h-20.9V167l35.4-79.8
			c4.4-9.8,7.4-13.3,18.4-13.3H1335.2z M1129.7,176.9l22.8-69.5l24.8,69.5H1129.7z"/>
		<path class="st0" d="M1389.1,137.6c-18.4-4.4-32.7-4.4-39.8-8.8c-9.1-5.6-13-13.5-13-25.6c0-20.9,12.5-32.7,34.2-32.7
			c24.8,0,41.8,17.5,45.7,49.1h3.5V71.7h-3.5v1.2c0,5.2-2.4,8.1-6.1,8.1c-4.9,0-17.9-14-39.5-14c-27.3,0-44.7,18.4-44.7,48.2
			c0,27.8,13.5,39.3,42.3,45c18.2,3.5,32,5.7,40.6,13.3c6.9,5.9,10.3,13.8,10.3,22.4c0,20.9-16.7,37.1-39.5,37.1
			c-27.5,0-47.9-21.1-50.4-58h-3.4v58.2h3.4c0.3-6.2,2.7-9.6,5.9-9.6c7.1,0,22.6,12.8,45.2,12.8c30.2,0,49.9-21.1,49.9-53.1
			C1429.8,156.5,1417.3,144.2,1389.1,137.6z"/>
	</g>
	<path class="st0" d="M1460.6,150.8c0-27.9,21.2-48.4,49.9-48.4c13.9,0,26.4,4.6,34.8,13.9l-6.4,6.4c-7.7-7.9-17.3-11.3-28.1-11.3
		c-23,0-40.3,16.9-40.3,39.4s17.3,39.4,40.3,39.4c10.9,0,20.4-3.4,28.1-11.4l6.4,6.4c-8.4,9.3-21,14-35,14
		C1481.8,199.2,1460.6,178.6,1460.6,150.8z"/>
	<path class="st0" d="M1565,157.7v-54.5h10v54.1c0,22.6,10.6,32.9,29.1,32.9c18.6,0,29.2-10.3,29.2-32.9v-54.1h9.8v54.5
		c0,27.3-14.7,41.5-39,41.5C1579.9,199.2,1565,185,1565,157.7z"/>
	<path class="st0" d="M1736.7,198.4l-21.8-30.6c-2.4,0.3-4.9,0.4-7.6,0.4h-25.6v30.2h-10.1v-95.2h35.6c24.2,0,38.9,12.2,38.9,32.6
		c0,15-7.9,25.4-21.8,29.9l23.3,32.6H1736.7z M1736.1,135.8c0-15.2-10.1-23.9-29.1-23.9h-25.3v47.7h25.3
		C1726.1,159.6,1736.1,150.8,1736.1,135.8z"/>
	<path class="st0" d="M1831.5,172.9h-53l-11.4,25.4h-10.5l43.5-95.2h9.9l43.5,95.2h-10.6L1831.5,172.9z M1827.8,164.8l-22.9-51.1
		l-22.8,51.1H1827.8z"/>
	<path class="st0" d="M1878.7,111.9h-33.5v-8.7h77v8.7h-33.5v86.5h-10V111.9z"/>
	<path class="st0" d="M2004.9,189.6v8.7h-67.3v-95.2h65.3v8.7h-55.2v33.9h49.2v8.6h-49.2v35.3H2004.9z"/>
	<path class="st0" d="M2027.9,103.2h38.7c30.5,0,51,19.6,51,47.6s-20.5,47.6-51,47.6h-38.7V103.2z M2066.1,189.6
		c25.3,0,41.6-16,41.6-38.9c0-22.8-16.3-38.9-41.6-38.9h-28.1v77.8H2066.1z"/>
</g>
<g>
	<g>
		<path class="st0" d="M179.1,3.5c77.2,0,139.8,61.9,141.2,138.7h0.1v189H37.8v-189h0.1C39.3,65.4,101.9,3.5,179.1,3.5 M179.1-2.5
			c-38.9,0-75.5,15-103.2,42.3c-26.2,25.8-41.6,59.9-43.7,96.4h-0.4v6v189v6h6h282.6h6v-6v-189v-6H326
			c-2.1-36.6-17.5-70.6-43.7-96.4C254.6,12.5,217.9-2.5,179.1-2.5L179.1-2.5z"/>
	</g>
	<g>
		<g>
			<path class="st0" d="M176.8,123.1c-4.2-0.9-7.8,0.3-12.1,1.4c1,2.6,2,4.9,2.7,7.2c0.5,1.4,1.7,3.2-0.4,4.4
				c-1.4,0.8-2.8-0.1-3.8-2.6c-1.1-2.6-2.1-5.2-3.3-8.2c-3.6,1.2-6.7,2.3-10.2,3.5c0.5,1.6,0.7,2.9,1.2,4.1
				c1.4,3.6,2.9,7.2,4.4,10.8c0.8,1.9,1.3,3.7-1,5.1c-2.5-0.4-3-2.6-3.8-4.5c-1.7-4.3-3.4-8.6-5.1-13c-3.9,0.9-6.6,3.2-9.9,5.1
				c2,5.1,3.9,9.9,5.8,14.8c0.8,2,1.4,4,2.3,5.9c0.7,1.5,0.5,2.7-0.9,3.4c-1.5,0.7-2.6-0.2-3.2-1.6c-1.8-4.4-3.5-8.9-5.2-13.3
				c-0.8-1.9-1.6-3.7-2.5-5.9c-3.6,1.9-5.8,4.8-8.9,7.3c1.5,4,3,8,4.5,12c1.2,3.1,2.5,6.1,3.7,9.1c0.3,0.8,0.6,1.8,0.5,2.6
				c-0.1,0.8-0.8,1.8-1.4,2c-0.6,0.2-1.8-0.3-2.2-0.9c-0.7-0.9-1.1-2.1-1.6-3.2c-1.9-4.9-3.8-9.7-5.7-14.6c-0.3-0.8-0.9-1.5-1.7-2.9
				c-2.4,3.1-4.6,5.8-6.5,8.7c-0.5,0.8-0.4,2.3,0,3.3c2,5.5,4.1,10.9,6.2,16.3c0.2,0.4,0.3,0.9,0.5,1.3c0.8,1.5,0.9,2.9-0.7,3.9
				c-1.3,0.8-2.5,0.1-3.5-2.3c-1.7-4.3-3.3-8.6-5-12.9c-0.3-0.8-0.9-1.4-1.9-2.7c-2.1,4.6-4.1,8.5-5.8,12.5
				c-0.3,0.6,0.2,1.7,0.5,2.5c1.3,3.3,2.6,6.6,3.9,10c0.3,0.8,0.8,1.8,0.7,2.6c-0.1,0.9-0.7,2.1-1.4,2.4c-0.7,0.2-2.1-0.5-2.4-1.2
				c-1-1.8-1.7-3.8-2.5-5.7c-0.3-0.6-0.6-1.3-1.2-2.4c-2.3,4-2.5,8-3.6,11.7c-1.1,3.6,0.2,8.2-3.5,10.9c-1.9-0.8-2.8-1.8-2.5-3.6
				c5-27.2,15.6-51.4,37.6-69.4c11.3-9.2,24.4-14.4,38.5-17.5c1.9-0.4,4.3,0.7,6-1.8c-6.1-4.7-12.6-8.5-19.8-11.7
				c-0.5,0.8-1.2,1.5-1.6,2.4c-1.9,4.1-3.6,8.2-5.4,12.3c-0.4,0.8-0.8,1.7-1.5,2.1c-0.7,0.4-1.8,0.3-2.5,0c-0.5-0.2-0.8-1.3-0.7-1.9
				c0.1-0.9,0.6-1.7,0.9-2.5c1.9-4.4,3.7-8.8,5.6-13.1c-1.8-1.8-2.9-2.2-10.3-3.7c-1.6,3.5-3.3,7.1-4.9,10.7c-1.3,3-2.5,6.1-3.9,9
				c-0.9,1.9-1,1.8-3.9,1.4c-1-1.8-0.2-3.4,0.6-5.1c2.4-5.4,4.7-10.9,7.3-16.8c-3.7-0.3-6.9-0.6-10.1-0.8c-1.8-0.1-2.4,1.5-3,2.9
				c-2.1,5.1-4.4,10.1-6.6,15.2c-0.4,1-0.9,1.9-1.3,2.9c-0.7,1.4-1.4,2.9-3.3,2c-1.9-0.9-1.3-2.5-0.7-3.8c2.3-5.3,4.7-10.7,7-16
				c0.3-0.7,0.5-1.4,0.8-2.3c-4.2-1.2-7.9,0.2-11.6,1.1c-1,0.2-1.8,1.9-2.3,3.1c-2.1,4.5-4,9-5.9,13.5c-0.4,0.8-0.7,1.6-1.1,2.5
				c-0.6,1.5-1.6,2.7-3.4,1.9c-1.8-0.8-1.4-2.2-0.7-3.8c1.9-4.1,3.6-8.2,5.4-12.3c0.3-0.7,0.4-1.6,0.8-3c-4.9,1.2-9.1,2.4-13,4.5
				c-0.9,0.5-1.4,1.9-1.9,2.9c-1.4,3.1-2.8,6.3-4.1,9.4c-0.8,1.9-1.9,3.1-4.3,1.9c-1.7-3.8,2.8-6.6,2.3-11.1
				c-5.6,3.5-10.6,6.7-15.7,9.8c-1,0.6-2,1.3-3.1,1.5c-0.6,0.1-1.6-0.7-2-1.3c-0.3-0.4-0.1-1.4,0.2-2c0.3-0.6,1-1.1,1.6-1.5
				c13.3-9.6,27.9-16.4,43.8-20.1c18.7-4.4,37.2-3.3,55.1,4.3c0.1,0.1,0.3,0,0.8,0c0.1-3.5,2.7-4.5,5.5-5.4c2.8-0.9,5.5-2.2,8.6-3.6
				c-1.2-2.2-2.2-4.1-3.5-6.4c-1.9,0.5-3.8,0.8-5.6,1.4c-2.9,1.1-5.8,2.4-8.7,3.6c-1.1,0.4-2.3,1-3.4,1c-0.7,0-1.8-0.7-2.1-1.3
				c-0.3-0.6,0.1-2,0.6-2.4c1.2-0.9,2.6-1.4,4-2c3.3-1.3,6.7-2.5,10-3.8c0.5-0.2,0.9-0.7,1.7-1.3c-1.9-2.1-3.7-4-5.4-5.9
				c-5.4,2.1-10.4,4.1-15.3,6.1c-0.6,0.2-1.2,0.4-1.7,0.6c-1.6,0.8-3,0.7-3.7-1.1c-0.6-1.6,0.4-2.4,1.8-3c2-0.7,3.8-1.7,5.8-2.5
				c2.8-1.1,5.6-2.1,8.6-3.3c-1.3-3.1-4.3-3.9-6.5-6c-4.7,1.8-9.3,3.7-14.1,5.5c-1.2,0.5-2.6,0.9-3.9,0.8c-1.8-0.1-2.4-2.2-1-3.3
				c1-0.8,2.3-1.4,3.5-1.9c2.5-1,5.1-1.8,7.6-2.8c0.6-0.2,1-0.8,2-1.7c-2.7-1.3-4.8-2.7-7.1-3.4c-1.6-0.4-3.5-0.1-5.2,0.4
				c-2.6,0.7-5,2-7.6,2.7c-0.9,0.2-2.6-0.2-3-0.9c-0.9-1.4,0.3-2.5,1.6-3.1c1.3-0.6,2.6-1.1,4.5-1.9c-2.9-2.5-5.9-2-8.5-2.9
				c-1.7-0.6-3.5-0.7-5.3-0.9c-1.6-0.2-3.1-0.5-3-2.5c0.1-1.5,1.5-2.4,3.8-2c3.1,0.5,6.2,1.1,9.2,2c11.3,3.1,22,7.6,31.6,14.5
				c13.2,9.5,22.4,21.9,26.7,37.7c0,0.1,0.2,0.2,0.6,0.6c0.5-0.3,1.3-0.6,1.4-1.1c5.6-19.4,18.3-32.9,35.7-42.4
				c9.6-5.2,19.9-8,30.4-10.5c0.9-0.2,1.8-0.1,2.7-0.2c1.5-0.1,2.6,0.7,2.4,2c-0.1,0.9-1.2,2.2-2,2.4c-3.5,0.8-7.1,1.3-10.6,2
				c-1.1,0.2-2.2,0.7-4.4,1.5c2.4,1.1,3.7,1.8,5.1,2.4c1.3,0.6,1.9,1.4,1.5,2.8c-0.4,1.6-1.8,1.6-2.9,1.3c-2.1-0.7-4.3-1.4-6.3-2.4
				c-3.4-1.7-6.6-1.7-9.8,0.3c-1.1,0.7-2.3,1.2-4,2c0.9,0.8,1.4,1.4,2,1.7c2.9,1.2,5.9,2.2,8.7,3.4c1.5,0.6,3.3,1.3,2.7,3.5
				c-0.4,1.5-2.2,1.7-4.7,0.7c-3.9-1.6-7.8-3.1-11.6-4.9c-2.2-1-4-0.8-5.8,0.7c-1.4,1.1-2.7,2.3-4.6,3.9c4.9,2,9.1,3.8,13.3,5.5
				c0.8,0.3,1.9,0.5,2.4,1.1c0.6,0.7,1.3,2,1,2.6c-0.3,0.7-1.6,1.3-2.5,1.4c-0.8,0.1-1.7-0.5-2.5-0.9c-5.1-2.1-10.2-4.1-15.6-6.3
				c-1.8,1.9-3.5,3.7-5.5,5.7c0.9,0.7,1.5,1.3,2.3,1.6c3.2,1.3,6.4,2.6,9.6,3.8c1,0.4,2,0.7,2.9,1.2c1.3,0.7,2.4,1.8,1.4,3.2
				c-0.5,0.7-2.2,1.1-3,0.9c-3.1-1-6.1-2.3-9.2-3.5c-1.4-0.6-2.8-1.2-4.2-1.7c-2.8-1-3-0.9-4.6,1.7c-0.4,0.6-0.8,1.3-1.1,1.9
				c-0.3,0.5-0.4,1.1-0.7,2.2c3,1.2,5.9,2.5,9,3.7c2.6,1,5,1.9,4.6,5.1c6.6-1.7,12.9-3.6,19.3-5c10.4-2.3,20.9-1.7,31.3,0.2
				c17.8,3.4,33.9,10.5,48.5,21.2c0.8,0.6,1.8,1.2,2.3,2c0.4,0.6,0.4,1.8,0,2.4c-0.4,0.5-1.6,0.9-2.3,0.7c-1-0.2-1.8-1-2.7-1.6
				c-5-3.3-9.9-6.6-15.1-10c-1.3,2.6,0.4,3.9,0.8,5.5c0.3,1.3,1.1,2.5,1.2,3.8c0.1,0.7-0.5,1.8-1.1,2.1c-0.6,0.3-1.7-0.1-2.4-0.5
				c-0.6-0.4-0.8-1.2-1.2-1.9c-0.4-0.9-0.8-1.9-1.2-2.9c-4.5-10.9-5.1-11.4-17.7-14.3c0.3,1.3,0.5,2.4,0.9,3.4c1.6,4,3.3,8,4.9,12
				c0.3,0.7,0.8,1.4,0.7,2.1c-0.1,0.8-0.7,1.8-1.3,2.1c-0.6,0.3-1.8,0-2.3-0.5c-0.8-0.9-1.2-2-1.7-3.1c-2.1-4.9-4.3-9.9-6.3-14.9
				c-0.8-2-1.8-3.2-4.2-3.3c-3.1-0.2-6.1-0.8-9.7-1.3c0.5,1.5,0.6,2.3,1,3.1c2.1,5.1,4.3,10.2,6.5,15.3c0.3,0.8,0.8,1.7,0.8,2.5
				c0,0.7-0.5,1.8-1.1,2.1c-0.6,0.3-1.9,0-2.4-0.5c-0.7-0.7-1.1-1.8-1.5-2.7c-2.4-5.5-4.7-11-7-16.5c-1.5-3.6-1.6-3.8-5.6-3.6
				c-2.4,0.1-4.7,0.5-7.7,0.9c1.5,3.7,2.9,7.1,4.3,10.4c1,2.5,2.2,4.9,3.1,7.5c0.5,1.3,0.5,2.8,0.7,4.1c-2.7,1.4-3.8,0.2-4.6-1.7
				c-1.2-2.9-2.4-5.8-3.6-8.6c-1.5-3.6-3.1-7.1-4.8-11.1c-3.2,0.7-6.2,1.3-9.2,2.2c-1.4,0.4-1.4,1.7-0.8,3c1.7,4,3.4,8,5.1,12
				c0.3,0.7,0.9,1.4,0.9,2c-0.1,0.9-0.5,2.2-1.2,2.5c-0.7,0.3-2.1-0.1-2.7-0.7c-0.9-1-1.3-2.4-1.8-3.6c-1.8-4.2-3.6-8.4-5.5-12.9
				c-7.5,3.3-14.2,7.1-20.8,12c1.3,0.6,2.1,1.3,3,1.4c27.2,4.1,47.7,18.3,62.1,41.5c7.8,12.5,12.6,26.1,15.7,40.3
				c0.4,2,0.7,4.1,1.1,6.2c0.3,1.6-0.6,2.8-2,3.1c-1.6,0.4-2.4-0.8-2.6-2.3c-1.1-5.4-2.1-10.8-3.3-16.2c-0.2-1.1-0.7-2.2-1.5-4.5
				c-1.3,3.1-2.1,5.3-3,7.3c-1,2.3-1,2.3-4.6,2.4c0.2-1.6,0.1-3.2,0.6-4.6c1.1-3.2,2.3-6.5,3.9-9.5c0.9-1.9,0.7-3.4-0.1-5.1
				c-1.5-3.2-3.1-6.5-4.9-10.3c-0.9,1-1.6,1.7-2,2.5c-1.6,4-3.2,8-4.7,12.1c-0.2,0.4-0.5,0.8-0.6,1.2c-0.5,1.5-1.4,2.3-3,2
				c-1.3-0.3-1.9-2-1.2-3.7c2-5,3.8-10.1,6.1-14.9c1.7-3.6,1.6-6.4-1.1-9.3c-1.5-1.6-2.8-3.5-4.4-5.6c-0.7,1.1-1.4,1.9-1.8,2.7
				c-2,4.8-3.9,9.7-5.8,14.6c-0.4,1-0.7,2.1-1.3,2.8c-0.6,0.7-1.8,1.4-2.5,1.2c-0.7-0.2-1.3-1.6-1.3-2.4c0-1.1,0.5-2.3,1-3.4
				c2.2-5.6,4.3-11.1,6.7-16.6c1-2.3,0.8-3.9-1.2-5.5c-2-1.6-3.7-3.4-6-5.5c-0.9,1.6-1.6,2.7-2,3.8c-1.9,4.7-3.8,9.4-5.6,14.1
				c-0.3,0.7-0.6,1.4-1,2c-0.7,1.3-1.9,1.7-3,0.9c-0.7-0.5-1-1.7-1.1-2.6c-0.1-0.6,0.5-1.4,0.8-2.1c2.5-6.2,5-12.4,7.5-18.6
				c-2.7-2.8-4.9-4.1-9.7-5.7c-1.7,4.2-3.5,8.4-5.2,12.6c-0.5,1.2-0.9,2.6-1.7,3.6c-0.4,0.6-1.6,1.1-2.2,0.9c-0.6-0.2-1.4-1.3-1.4-2
				c0-1.1,0.4-2.3,0.8-3.4c1.8-4.6,3.6-9.1,5.6-14.2c-3.4-1.3-6.6-2.4-10.1-3.8c-0.6,1.3-1.3,2.4-1.8,3.6c-0.8,1.8-1.4,3.6-2.2,5.4
				c-0.7,1.5-1.8,2.6-3.5,1.8c-1.7-0.7-1.3-2.1-0.7-3.4c1-2.6,2-5.2,3.2-8.1c-4-1.2-7.6-2.2-11.2-1.8c-0.2,0.2-1,1.4-1.3,1.4
				c-0.1,0-0.7,0-1.3,0C178.6,124.3,178.6,123.7,176.8,123.1z M157.7,102.7c6.6,4,12.2,7.5,18.4,11.3c-0.7-6.1-2.1-11.3-4.5-16.7
				C167,99,162.6,100.7,157.7,102.7z M182.3,114c6.5-3.9,12.2-7.4,18.5-11.2c-5.1-2-9.5-3.7-13.9-5.4C184.4,102.8,183,108,182.3,114
				z"/>
		</g>
		<path class="st0" d="M182.2,246.3c0,0-2.6,0.5-6.5,2c0-1,0-132.6,0-132.6h6.5V246.3z"/>
	</g>
	<g>
		<path class="st0" d="M307.9,281.6c-4.1-1.4-4.1-1.4-8.3-2.6c-35.4-9.7-70.2-3.2-87.9,1.3c-13.4,3.4-71.3,20.7-89.8,23.7
			c-17.2,2.8-44.6-1.7-53.9-6c-7.3-3.5-9.5-4.7-16.2-9c-0.2-0.1-0.3-0.3-0.8-0.9c2.9,1.2,5.3,2.2,7.5,3.3c9.8,3.8,15.3,4.5,22.7,5.6
			c8.4,1.3,16.9,1.4,25.4,0.6c16.3-1.4,31.6-5.5,46.8-10.1c15.8-4.8,31.7-9.7,47.7-14.1c17.1-4.6,34.8-6.7,53-5.9
			c10.6,0.5,20.8,2.3,30.8,5.1c9.8,2.7,11.8,3.4,20.7,7.5c0.8,0.4,1.6,0.8,2.4,1.2C308,281.5,308,281.5,307.9,281.6z"/>
		<path class="st0" d="M117.3,279.4c-1.7,0.6-12.8,3.9-15.6,4.6c-11.4,2.7-22.7,3.2-33.7-1.5c-1.3-0.6-2.6-1.1-3.8-1.7
			c8.4,6.4,17.9,7.9,29.4,7.8c13-0.1,20.1-2.7,32.2-6.1c4.8-1.3,23.6-9.5,42.4-10c1.2,0,3.2,0.1,4.3,0.2l0.8-0.2
			c-2.4-0.9-4.1-1.5-8.3-1.6C148.1,270.4,131,275.2,117.3,279.4z"/>
		<path class="st0" d="M292.6,288.6c-14.9-5.9-30.5-8.7-47.2-6.4c-11.9,1.6-29.1,7-40.1,10.7c-13.1,4.3-26.4,8.2-40.7,9.6
			c-0.8,0.1-1.5,0.2-2.9,0.5c1,0.4,1.3,0.5,1.6,0.6c11.7,2.3,23.5,1,35.1-1.6c11.6-2.6,28.9-8.3,40.3-11.4
			c0.8-0.2,15.7-3.5,16.4-3.6c10.2-2,20.5-0.7,30.8,1c2.4,0.4,4.8,0.9,8,1.5C293.1,288.9,292.9,288.7,292.6,288.6z"/>
	</g>
</g>
</svg>
